PathFileType	4	(X/Y/Z)	30_2_64_p1_0-885.trc
DataRate	CameraRate	NumFrames	NumMarkers	Units	OrigDataRate	OrigDataStartFrame	OrigNumFrames
51.0	51.0	5	27	m	51.0	221	886
Frame#	Time	RHip			RKnee			RAnkle			RBigToe			RSmallToe			RHeel			LHip			LKnee			LAnkle			LBigToe			LSmallToe			LHeel			Neck			Head			Nose			RShoulder			RElbow			RWrist			RThumb			RIndex			RPinky			LShoulder			LElbow			LWrist			LThumb			LIndex			LPinky			
		X1	Y1	Z1	X2	Y2	Z2	X3	Y3	Z3	X4	Y4	Z4	X5	Y5	Z5	X6	Y6	Z6	X7	Y7	Z7	X8	Y8	Z8	X9	Y9	Z9	X10	Y10	Z10	X11	Y11	Z11	X12	Y12	Z12	X13	Y13	Z13	X14	Y14	Z14	X15	Y15	Z15	X16	Y16	Z16	X17	Y17	Z17	X18	Y18	Z18	X19	Y19	Z19	X20	Y20	Z20	X21	Y21	Z21	X22	Y22	Z22	X23	Y23	Z23	X24	Y24	Z24	X25	Y25	Z25	X26	Y26	Z26	X27	Y27	Z27	
221	4.333333333333333	0.25862188110895123	0.5281129267177284	0.9047827217123087	0.24674282421716262	0.49239718863419846	1.2700391818206969	0.25852302415661726	0.6176170699655669	1.8391158769049225	0.22740601128338164	0.3129274796112532	1.777192552445024	0.29893672252144904	0.37952661172065055	1.7969455415851785	0.25707192459622596	0.6552173298394878	1.8945079943591092	0.0441587357343672	0.52512321187988	0.9193674426980114	0.07264435508355133	0.5091294979942683	1.3168458727590622	0.07663740355590015	0.5398936521330695	1.7970452069086924	0.09291721575006813	0.30787089327604616	1.7558129165021876	0.05471919795420091	0.3650268952549547	1.7808115058076055	0.08764016559767115	0.5938529186657712	1.8694816492372166	0.10552170848049683	0.26949568442286403	0.43690713615123594	0.08155574991564185	0.039138435389400844	0.15319509744093576	0.07847063406185292	0.07132464690305751	0.3419921160107425	0.2826139301407498	0.2707071093644283	0.44326467787786805	0.34273128676258957	0.34345070937777317	0.7209495216197728	0.2806507035757352	0.2742152591537821	1.0009151050228466	0.18207276867093225	0.24652222773632493	1.1098711127728267	0.19733011065138703	0.21845423882033604	1.1123013333254035	0.25407334802614756	0.28491354084495657	1.139737017022329	-0.057589966242387866	0.3337257868591584	0.47483304562505363	-0.07873834442363503	0.3840653343883564	0.7553463114559826	-0.03941504374466559	0.31498576160445696	0.9955591301557647	0.055562414622887066	0.2940929271559374	1.1037310340480477	0.025272533600790043	0.2383859754034148	1.1218224850268965	-0.0257176213173152	0.3360373219866082	1.150599594807292
222	4.352941176470588	0.2582810235454559	0.5280247725173463	0.9047500952334827	0.24509886309380924	0.4913470854310439	1.2875413724518607	0.2592846449960043	0.600228245234295	1.8333507620094716	0.23177166710739813	0.3235998435821472	1.7884823521622157	0.29410915714939867	0.3767416076748439	1.7961942173308991	0.25719417693142654	0.6542007434203236	1.8942152643085441	0.03960897827861731	0.5240749987306669	0.9151233129497537	0.07457487073211949	0.5244513616153053	1.3240416332700387	0.07659148328897385	0.5405441738967047	1.796820704379368	0.09704231341104769	0.3205885539169326	1.7688604379042188	0.050034771110004754	0.37931396373385645	1.7903209487317664	0.08501200920107992	0.5848585262420201	1.8634123231430244	0.10745743571753477	0.2799752546019681	0.42071535379520214	0.07701569990702747	0.050343646025707664	0.14197154258945074	0.07785969166463536	0.07215797711148059	0.332222781635878	0.29010910737731943	0.2826946358452689	0.4413002586566194	0.33652455529204756	0.3354444713350394	0.7014840392102616	0.283680820747733	0.27647156701571834	0.9852453077170165	0.1864777365147808	0.2343816152484786	1.0908984396866004	0.19744634873519207	0.21827378990898152	1.1008032352599655	0.2417242876616464	0.2799488171120339	1.1256289819202479	-0.054632608607946	0.3355703979760358	0.46775165594644763	-0.07953717989384156	0.3847705080783045	0.7353618413181369	-0.03965747801449374	0.31554347811468586	0.9832788075897099	0.05340163445697347	0.2960195734897608	1.078576300222449	0.02592849491409575	0.23940820605575644	1.1124847421471173	-0.02182446257042271	0.35406067914907835	1.1417825088125044
223	4.372549019607843	0.2539231138918093	0.5243309139950284	0.8998018015713541	0.25081579288605343	0.511859222583756	1.3008760598863018	0.25924777835601714	0.6000097775819341	1.832909171718345	0.23561912926373269	0.335065443714118	1.796198609087543	0.29825713158043354	0.3892777738190133	1.8037714368539328	0.25987326382889064	0.6348810530421132	1.8769933183691714	0.04103365364804992	0.5214190531902673	0.919626229048666	0.06675828029973777	0.5312340350938979	1.332922188887301	0.07656357318795713	0.5403029449872989	1.796868466180541	0.09740115237562805	0.3206909300353302	1.7696436745829338	0.04991116641981207	0.3795178150239059	1.7907871634009864	0.08439225209305665	0.5839560958146194	1.8602187769548484	0.10298986968593299	0.2700231833880154	0.3941463053466292	0.07245157512165677	0.07847218665539887	0.13224646289679837	0.08385700715785109	0.08320975577708223	0.320956190423737	0.2932741609235028	0.29341707676413414	0.4291449505512546	0.33906885178167123	0.3367755517669054	0.6983026132173588	0.2782083639824711	0.2685384815732355	0.9628191542370403	0.18536357734630454	0.20118590839105674	1.0626867126271564	0.19251113292989694	0.2170322991051356	1.0962842700562032	0.23410588079463523	0.2596230125715898	1.1165073066867526	-0.05447021200437177	0.33582055627371826	0.4576383042290632	-0.07480991979654711	0.3717114977493698	0.7089199791090487	-0.038429430387773356	0.31689807741208326	0.9687811744533432	0.05390557972487816	0.296514782157737	1.058346820951646	0.020265711417617356	0.23483171244654336	1.0907445473349093	-0.024568636382041025	0.355033692589392	1.1153151700148058
224	4.392156862745098	0.25764802189366104	0.5262062774599227	0.9000759938032711	0.2558755684694397	0.5199792489957789	1.3110083624452487	0.2637808499611747	0.6141066930391369	1.8414264502919027	0.23540327469310263	0.334459724072314	1.796310589172461	0.29816739169023754	0.38880229393757965	1.8041990840395103	0.26658120927148427	0.6515973244662185	1.8930322527745895	0.03628196456761262	0.535547678065542	0.9148878283969324	0.06804079767518237	0.5278298381286541	1.3111297896264724	0.07678154249942913	0.540572048774731	1.7965915691951326	0.09797086306303289	0.33677913316056096	1.7805549242282652	0.049793020547669785	0.3794689502669314	1.7909475367566368	0.08916555105624754	0.5661581905911204	1.8494735508847902	0.10491767646417566	0.28362587298512454	0.3788312453448235	0.07152283030731164	0.07924043819914867	0.11384786656148305	0.0861860386641304	0.08675970113355111	0.2928969465647012	0.29308743895374095	0.2943139292156752	0.41855031813402926	0.3386719586730511	0.3371625745442696	0.6910646520201333	0.2773514851914249	0.2682788687492438	0.9504429033529848	0.17810352153587206	0.20283037589897573	1.0411866155508722	0.18933031960083477	0.2076115061324982	1.0882924614519993	0.22958022741727513	0.24936266339576077	1.1043922715128498	-0.05917357622131178	0.34828727863701037	0.44211671123650603	-0.0759638795688938	0.3719370479401883	0.6893530877918712	-0.03835534806309402	0.31632420047095544	0.9602914986801045	0.05406989779945921	0.2955677042401464	1.050064961211377	0.022271969710798895	0.23719159320345617	1.0797689840344358	-0.025646571050698393	0.356165371307432	1.1044687024941553
225	4.411764705882353	0.2625173328152322	0.5292559629178785	0.8959536220472454	0.26167182913045717	0.537764132694621	1.325082732311626	0.25950771121418537	0.6001765148662778	1.8331916543667124	0.23616007470611242	0.33385295744554633	1.7908222555342284	0.2933544626708606	0.3871399194780375	1.8039810767344964	0.26153804751856097	0.6368708103215585	1.8835291726546377	0.032946578524852284	0.5200850421956994	0.9143074129092817	0.06682084271958573	0.5282465037739158	1.3192235219073836	0.07810415708334942	0.541050815946349	1.7915056059596208	0.10214740102795919	0.3233379581097849	1.771096699336655	0.049851841245423585	0.37957328192337664	1.790991120741741	0.09109082530571785	0.5905848228484403	1.8583835284346875	0.11114389516352176	0.30737873398316473	0.3662223917196453	0.0759240289382309	0.1033404607628025	0.07977366567811214	0.0877711162712337	0.1097338069423243	0.26752996107365323	0.307008351253957	0.32721836094758017	0.3953809065151883	0.3491885264944035	0.3425211615496164	0.6726415511393641	0.27353057314811335	0.25383776850624334	0.9100137194354906	0.17040785935326738	0.17056612264571624	0.9932990170383075	0.19004324934611536	0.18545032078165544	1.032309112338497	0.22956564669355492	0.23028808814991522	1.047005123861092	-0.055478741602839894	0.34094760056447254	0.41061198231520263	-0.09409456725959782	0.409313654370593	0.6812526922347916	-0.038730869885537644	0.3190452066312895	0.9399582614834914	0.05186085044217589	0.2875026734938128	1.0335969021540643	0.01979341158338597	0.2514333019179913	1.053785538441476	-0.018083797942337644	0.3741868134051452	1.0891974120605477
